<?xml version="1.0" standalone="no"?>
<!DOCTYPE svg PUBLIC "-//W3C//DTD SVG 20010904//EN"
 "http://www.w3.org/TR/2001/REC-SVG-20010904/DTD/svg10.dtd">
<svg version="1.0" xmlns="http://www.w3.org/2000/svg"
 width="1024.000000pt" height="1024.000000pt" viewBox="0 0 1024.000000 1024.000000"
 preserveAspectRatio="xMidYMid meet">
<metadata>
Created by potrace 1.16, written by Peter Selinger 2001-2019
</metadata>
<g transform="translate(0.000000,1024.000000) scale(0.100000,-0.100000)"
fill="#000000" stroke="none">
<path d="M4970 8744 c-74 -41 -180 -99 -235 -128 -55 -29 -155 -83 -222 -120
-68 -36 -125 -66 -128 -66 -3 0 -18 -8 -33 -19 -15 -10 -121 -69 -237 -131
-115 -62 -235 -126 -265 -143 -94 -51 -421 -228 -495 -267 -38 -20 -191 -104
-340 -185 -258 -141 -356 -195 -490 -266 -33 -17 -73 -39 -90 -49 -40 -23
-106 -59 -386 -210 -130 -71 -256 -139 -280 -152 -24 -14 -79 -44 -122 -68
-92 -50 -105 -34 118 -155 87 -47 188 -104 224 -124 37 -21 95 -54 131 -73
147 -80 319 -174 735 -404 83 -45 162 -88 178 -95 15 -7 27 -15 27 -18 0 -5
-160 -101 -185 -110 -9 -3 -265 -147 -345 -194 -19 -11 -53 -30 -75 -42 -22
-12 -134 -75 -250 -140 -115 -65 -302 -170 -415 -233 -113 -63 -209 -117 -214
-120 -4 -2 41 -31 100 -65 60 -33 172 -94 249 -137 77 -42 167 -93 200 -112
33 -19 89 -51 125 -70 36 -19 117 -64 180 -100 63 -35 160 -88 215 -118 55
-29 134 -72 175 -95 41 -24 93 -53 115 -65 22 -12 64 -35 93 -52 l53 -30 -88
-50 c-48 -28 -126 -73 -173 -101 -80 -48 -457 -266 -600 -347 -240 -136 -630
-370 -630 -379 0 -4 57 -40 128 -80 70 -39 188 -107 262 -151 74 -43 173 -100
220 -126 47 -26 128 -73 180 -104 52 -32 156 -93 230 -136 74 -43 173 -100
220 -127 47 -27 175 -102 285 -165 283 -163 360 -208 530 -307 83 -48 213
-124 290 -168 77 -44 244 -140 370 -215 309 -181 439 -257 570 -332 61 -35
139 -81 174 -102 36 -21 68 -38 71 -38 7 0 251 139 525 300 110 64 292 170
405 235 113 65 238 138 278 161 40 24 75 44 78 44 2 0 33 17 67 39 34 21 215
127 402 236 317 183 392 227 535 311 338 197 481 280 515 299 22 12 85 48 140
80 55 32 181 105 280 163 99 58 211 123 248 145 38 22 65 43 60 47 -13 11
-332 200 -338 200 -3 0 -18 8 -33 19 -15 10 -70 43 -122 73 -52 30 -194 113
-315 183 -232 136 -386 225 -550 319 -55 32 -105 63 -112 70 -10 9 1 18 45 41
31 16 82 44 112 61 54 31 751 418 860 477 30 16 138 77 239 134 101 58 195
109 207 114 13 4 24 12 24 16 0 5 -105 66 -233 137 -128 71 -329 184 -447 251
-118 67 -260 146 -315 175 -55 29 -111 61 -125 70 -14 10 -65 39 -115 65 -49
26 -128 69 -174 95 -83 47 -83 48 -60 62 13 9 155 86 314 173 160 87 308 168
330 181 37 20 77 42 345 189 110 60 144 79 250 140 36 20 94 53 130 73 36 19
73 41 83 47 21 14 40 2 -238 155 -82 45 -193 106 -245 135 -52 29 -135 74
-185 100 -49 27 -121 65 -158 87 -38 21 -71 38 -73 38 -2 0 -48 24 -101 54
-172 94 -423 231 -608 331 -99 53 -205 111 -235 128 -116 64 -139 77 -290 157
-85 45 -159 86 -165 90 -5 4 -107 59 -225 123 -118 63 -354 190 -525 282 -170
92 -347 187 -391 211 -45 24 -88 44 -95 43 -8 0 -75 -34 -149 -75z m373 -418
c239 -128 265 -142 502 -271 94 -50 211 -114 260 -140 50 -27 106 -57 125 -68
19 -11 103 -57 185 -102 83 -45 170 -93 195 -107 57 -32 238 -130 505 -273
116 -62 228 -122 250 -135 22 -12 96 -53 165 -90 69 -37 141 -77 161 -88 19
-11 79 -43 133 -72 54 -28 112 -60 128 -70 l31 -18 -54 -28 c-43 -21 -413
-225 -639 -352 -73 -40 -330 -182 -390 -214 -30 -17 -118 -65 -195 -108 -77
-43 -221 -122 -320 -177 -99 -55 -211 -117 -250 -138 -38 -20 -74 -40 -80 -45
-5 -4 -46 -26 -90 -50 -44 -24 -98 -54 -120 -66 -22 -12 -85 -47 -140 -77 -55
-30 -174 -95 -264 -146 -90 -50 -166 -91 -168 -91 -3 0 -17 -9 -32 -19 -14
-11 -48 -31 -74 -45 l-48 -25 -82 48 c-82 47 -217 123 -312 176 -76 42 -443
244 -500 275 -27 15 -149 83 -270 150 -121 68 -245 137 -275 153 -30 16 -118
64 -195 107 -77 42 -165 91 -195 107 -131 71 -977 542 -1009 561 -16 9 75 61
769 434 118 64 344 186 640 348 179 98 350 191 380 207 211 113 590 319 717
389 84 47 163 89 175 94 13 5 50 25 83 45 33 19 66 35 73 35 7 0 108 -51 225
-114z m-1837 -2501 c53 -30 98 -55 100 -55 2 0 21 -11 42 -24 20 -13 111 -64
202 -113 316 -173 556 -306 710 -394 85 -48 164 -91 175 -95 11 -4 47 -24 80
-44 33 -20 115 -67 183 -104 l123 -67 37 19 c20 10 87 47 147 82 61 35 135 77
165 93 30 17 116 64 190 105 74 41 153 85 175 97 160 87 287 157 390 215 66
37 143 79 170 95 28 15 79 43 115 63 36 20 122 69 192 109 113 65 130 72 150
62 13 -6 151 -85 308 -174 157 -89 344 -195 415 -235 274 -153 395 -224 395
-230 0 -3 -37 -26 -82 -51 -127 -70 -440 -245 -563 -314 -60 -34 -139 -78
-175 -98 -158 -86 -347 -190 -366 -202 -11 -7 -56 -32 -100 -55 -119 -63 -181
-99 -232 -131 -25 -16 -49 -29 -53 -29 -4 0 -42 -20 -83 -45 -42 -25 -78 -45
-80 -45 -3 0 -46 -24 -98 -54 -51 -29 -118 -67 -148 -83 -66 -35 -309 -170
-330 -183 -13 -8 -69 -39 -369 -208 -42 -23 -97 -53 -122 -67 l-46 -24 -314
176 c-443 247 -934 521 -999 556 -30 17 -84 47 -120 67 -36 21 -218 122 -405
225 -569 314 -614 339 -785 435 -91 50 -180 98 -197 105 -18 8 -33 18 -33 23
0 5 66 46 148 92 81 45 215 121 297 168 83 47 179 101 215 121 36 19 157 88
270 152 113 65 206 118 208 119 2 0 46 -25 98 -55z m-48 -1641 c24 -16 174
-101 567 -319 121 -67 315 -175 430 -240 116 -65 266 -149 335 -188 69 -38
171 -96 228 -129 l103 -59 92 51 c51 28 99 55 107 60 8 6 40 23 70 40 30 16
80 44 110 61 30 18 93 53 140 79 105 57 807 450 1023 571 l158 89 82 -48 c45
-27 208 -122 362 -212 154 -89 300 -175 325 -190 139 -84 324 -192 355 -207
19 -9 34 -21 32 -27 -3 -9 -32 -27 -132 -82 -16 -9 -95 -55 -175 -102 -80 -46
-176 -102 -215 -125 -38 -22 -117 -68 -175 -102 -58 -35 -179 -105 -270 -157
-91 -53 -221 -128 -290 -168 -68 -40 -138 -81 -155 -90 -17 -10 -91 -52 -165
-95 -74 -43 -150 -86 -169 -97 -20 -11 -79 -46 -131 -77 -52 -31 -106 -62
-120 -69 -14 -7 -38 -21 -55 -31 -50 -31 -444 -261 -494 -288 -25 -14 -50 -29
-56 -33 -5 -4 -65 -39 -132 -78 l-122 -70 -138 80 c-76 45 -165 97 -199 117
-125 74 -590 344 -774 450 -74 43 -200 116 -280 163 -80 47 -206 120 -280 163
-74 42 -148 85 -165 95 -16 10 -100 58 -185 107 -85 50 -198 115 -250 146 -52
30 -114 65 -136 78 -398 228 -455 264 -437 277 10 8 108 65 218 129 110 64
243 140 295 171 158 91 429 251 530 313 52 31 100 58 105 58 6 1 21 -6 33 -15z"/>
<path d="M5117 7540 c-4 -14 -25 -131 -48 -260 -29 -168 -46 -240 -59 -253
-12 -14 -74 -29 -226 -58 -115 -22 -236 -46 -269 -53 l-60 -12 75 -13 c41 -6
95 -16 120 -21 25 -5 72 -13 105 -19 157 -27 228 -43 245 -54 23 -14 38 -76
81 -332 18 -104 35 -193 39 -198 3 -4 23 90 44 209 49 283 58 312 99 328 18 8
142 33 277 56 135 23 246 44 248 45 4 4 -39 12 -303 60 -110 19 -212 41 -227
46 -37 15 -33 -1 -116 454 -14 73 -20 93 -25 75z"/>
</g>
</svg>
